<?xml version="1.0" encoding="utf-8"?>
<!-- Generator: Adobe Adobe Illustrator 24.2.0, SVG Export Plug-In . SVG Version: 6.00 Build 0)  -->
<svg version="1.1" id="Layer_1" xmlns="http://www.w3.org/2000/svg" xmlns:xlink="http://www.w3.org/1999/xlink" x="0px" y="0px"
	 width="1728px" height="1728px" fill="#ffffff" viewBox="0 0 1728 1728" style="enable-background:new 0 0 1728 1728;" xml:space="preserve">
<g>
	<path d="M1008.15,818.61c-17.41,28.85-43.83,46.98-75.59,58.87c-4.55,1.28-8.48,2.39-14.23,4.02c5.76-1.63,9.68-2.74,14.86-4.19
		C964.32,865.59,990.74,847.46,1008.15,818.61z"/>
	<path d="M729.08,1182.71c-6.75,14.61-14.8,28.79-19.8,43.98c4.98-15.1,12.96-29.22,20.06-44.21
		C729.24,1182.56,729.17,1182.63,729.08,1182.71z"/>
	<path d="M723.51,989.7c5.62-12.94,1.3-26.14-8.74-31.7c-10.73-5.94-24.63-3.17-32.89,7.78c-4.97,6.6-8.7,14.25-12.26,21.78
		c-20.35,43.11-40.56,86.27-60.58,129.53c-3.5,7.56-8.41,10.72-16.89,10.6c-29.03-0.39-58.06-0.12-87.09-0.17
		c-1.54,0-3.07-0.6-5.42-1.08c1.03-2.91,1.64-5.26,2.66-7.42c67.33-144.23,134.72-288.44,202.04-432.67
		c13.09-28.04,26.14-56.09,38.83-84.31c6.07-13.5,2.39-26.29-8.33-32.34c-12.81-7.24-25.15-4.3-34.14,8.78
		c-4.24,6.17-7.92,12.82-11.1,19.61c-20.19,43.18-40.24,86.42-60.14,129.74c-3.1,6.76-7.03,10.75-15.07,10.66
		c-28.75-0.31-57.5-0.18-86.26-0.29c-2.59-0.01-5.19-0.55-8.63-0.93c1.26-3.26,1.93-5.34,2.84-7.3
		c18.55-40.26,37.24-80.44,55.57-120.8c2.83-6.23,5.19-13.13,5.67-19.87c0.78-10.77-7.74-20.43-18.38-22.98
		c-11.25-2.7-22.18,2.71-27.94,14.73c-23.02,48.01-46.01,96.04-68.53,144.29c-4.41,9.44-10.32,13.41-20.66,13.2
		c-24.83-0.5-49.68-0.35-74.52-0.2c-4.66,0.03-9.59,0.55-13.93,2.13c-10.84,3.93-16.7,14.58-15.17,26.06
		c1.28,9.6,8.86,16.25,20.48,17.68c3.31,0.41,6.68,0.4,10.03,0.41c17.87,0.04,35.73-0.1,53.6,0.08c8.57,0.09,10.33,2.35,6.99,10.15
		c-7.14,16.64-14.92,33.01-22.38,49.51c-8.73,19.3-17.99,38.38-25.94,58c-6.5,16.04,2.79,29.78,20.06,31.65
		c12.14,1.31,20.91-4.41,27.67-18.66c19-40.05,38.01-80.09,56.65-120.31c3.41-7.36,8.08-10.69,16.05-10.64
		c28.47,0.2,56.94,0.12,85.42,0.22c8.13,0.03,9.35,2.14,5.81,9.65c-49.49,105.18-99.18,210.28-148.27,315.65
		c-6.19,13.29-14.08,18.78-28.95,18.02c-23.66-1.21-47.43-0.49-71.16-0.34c-14.45,0.1-25.75,10.04-26.48,22.75
		c-0.69,11.94,7.83,20.2,23.51,22.09c7.74,0.93,15.58,1.24,23.38,1.33c16.11,0.19,32.22,0.06,49.54,0.06
		c-4.73,10.37-9.01,19.65-13.23,28.97c-13.2,29.2-26.62,58.31-39.44,87.68c-5,11.46-2.39,20.73,5.88,27.09
		c9.13,7.02,21.15,7.82,30.24,0.44c5.21-4.23,9.88-10.03,12.76-16.09c18.63-39.3,36.81-78.81,54.83-118.39
		c3.22-7.08,7.7-10.08,15.47-9.94c20.37,0.37,40.75,0.19,61.97,0.24c8.37,0,15.91-0.1,23.45,0.02c8.74,0.15,9.51,1.37,5.83,9.3
		c-20.06,43.24-40.27,86.41-60.18,129.72c-8.02,17.45-16.06,34.95-22.85,52.89c-4.77,12.62,2.06,24.18,14.76,28.38
		c11.6,3.84,23.68-0.88,30.55-12.8c5.56-9.65,10.55-19.65,15.26-29.75c43.87-93.96,87.68-187.95,131.4-281.99
		C699.51,1043.09,711.85,1016.54,723.51,989.7z"/>
	<path d="M831.41,954.45c3.68-8.27,7.45-16.49,11.16-24.67c-13.09,1.57-25.04,3.75-37.07,4.25c-13.22,0.55-22.76-6.29-28.83-19.82
		c-6.18,3.55-11.82,6.81-17.49,10.04c-19.5,11.1-39.78,15.17-60.64,4.55c-23.76-12.09-32.88-36.47-26.61-66.82
		c7.56-36.56,27.61-65.22,56.92-86.95c16.89-12.51,36.08-21.91,54.84-32.92c24.08-8.32,47.32-17.45,73.05-13.84
		c9.71,1.36,15.02,5.14,16.93,13.43c2.31,10.06-0.05,18.36-8.45,22.44c-7.64,3.72-16.1,6.26-24.48,7.89
		c-47.19,9.17-85.42,31.82-111.2,73.27c-3.47,5.58-5.92,12.01-7.69,18.37c-2.08,7.45-2.32,15.21,5.24,20.37
		c7.42,5.07,14.45,2.42,21.04-1.91c17.35-11.41,28.83-27.53,37.33-46.23c5.75-12.65,11.9-25.16,18.66-37.3
		c4.03-7.23,10.46-12.37,19.22-13.46c8.08-1.01,15.84-0.38,21.3,6.61c5.53,7.08,5.67,15.06,2.04,22.94
		c-8.39,18.23-17.05,36.34-25.58,54.51c-2.26,4.82-5.16,9.72-0.05,14.51c5.03,4.71,10.12,2.2,14.52-0.78
		c13.16-8.89,26.37-17.77,38.91-27.49c4.39-3.4,7.69-8.88,10.1-14.05c19.56-41.93,38.75-84.04,58.15-126.04
		c3.86-8.35,9.37-15.17,18.66-18.06c8.77-2.73,16.61-1.14,23.29,5.12c6.65,6.23,7.69,13.87,4.91,22.3c-0.99,3.01-1.76,6.1-3.2,11.15
		c6.34-1.41,10.85-2.22,15.26-3.43c31.74-8.76,61.01,11.8,63.68,44.61c3.28,40.3-14.11,71.63-41.69,99.05
		c-28.8,28.63-63.56,45.81-102.46,55.56c-2.14,0.54-4.47,1.05-6.59,0.73c-14.94-2.23-23.61,5.44-29.51,18.04
		c-11.82,25.24-23.75,50.43-35.71,75.61c-4.52,9.5-12.22,14.13-22.7,14.34c-17.15,0.34-26.75-12.81-20.17-29.3
		C814.13,991.92,823.02,973.29,831.41,954.45z M918.32,881.49c5.76-1.63,9.68-2.74,14.86-4.19c31.14-11.71,57.55-29.84,74.96-58.69
		c4.81-7.97,7.18-18.11,8.12-27.51c0.94-9.37-7.79-16.09-16.69-13.77c-22.96,5.98-42.48,16.8-52.3,40.24
		c-4.74,11.31-10.08,22.36-15.15,33.52C927.8,860.63,923.47,870.18,918.32,881.49z"/>
	<path d="M1156.59,1160.37c-7.3-17.49-11.39-34.78-4.67-53.58c1.46-4.08-0.01-9.96-1.81-14.31c-4.26-10.31-14.11-9.34-22.98-9.8
		c-9.14-0.47-14.5,4.83-18.11,12.38c-8.67,18.11-17.2,36.27-25.79,54.42c-5.48,11.6-11.51,22.98-16.2,34.89
		c-2.36,5.98-3.3,12.95-3.08,19.41c0.31,9.09,6.61,14.39,14.88,17.23c8.56,2.94,16.49,1.06,22.06-5.74
		c5.88-7.18,10.49-15.4,17.13-25.4c5.23,16.87,10.49,32.02,14.43,47.51c1.44,5.65,0.63,12.31-0.74,18.14
		c-3.03,12.87-16.64,22.74-30.58,23.29c-9.91,0.39-19.94-8.2-24.41-20.94c-0.74-2.1-1.22-4.29-1.93-6.41
		c-6.58-19.71-23.37-25.1-40.22-12.79c-4.27,3.12-7.95,7.06-12.22,10.18c-10.34,7.56-20.87,14.86-31.92,22.54
		c-5.59,2.81-11.62,4.82-14.99-0.27c-1.87-2.83-0.49-8.97,1.22-12.81c8.72-19.61,18.11-38.92,27.09-58.41
		c7.81-16.96,15.87-33.83,22.9-51.11c4.23-10.4,0.92-19.19-7.36-25.21c-8.25-5.99-17.93-6.46-26.35,0.31
		c-4.82,3.87-9.17,9.18-11.84,14.75c-14.43,30.17-28.34,60.59-42.29,90.98c-10.13,22.05-29.04,33.84-49.97,43.32
		c-1.24,0.56-2.71,0.76-4.09,0.84c-7.34,0.4-10.84-4.11-8.36-11.08c2.34-6.55,4.76-13.11,7.68-19.41
		c12.44-26.8,25.2-53.46,37.58-80.29c2.78-6.02,5.35-12.39,6.44-18.86c1.4-8.28-0.42-16.42-8.16-21.39
		c-8.31-5.34-17.53-5.69-25.02,0.65c-5.99,5.07-11.34,11.63-14.98,18.57c-8.91,17.03-17.15,34.45-24.78,52.09
		c-11.04,25.55-22.99,50.89-31.42,77.32c-8.5,26.66,7.63,47.66,35.44,50.86c21.96,2.53,41.09-5.48,59.65-15.73
		c9.22-5.09,11.16-4.82,17.17,3.93c5.72,8.33,13.78,12.66,23.41,12.36c9.08-0.28,18.72-0.97,27.04-4.22
		c17.76-6.95,34.83-15.67,53.51-24.27c0.72,0.67,3.16,2.89,5.56,5.17c28.5,27.18,71.05,31.2,103.25,9.76
		c27.36-18.23,40.57-53.11,30.89-88.92C1174.08,1199.75,1164.84,1180.13,1156.59,1160.37z"/>
	<path d="M1223.38,933.11c11.78-3.15,23.03-8.31,35.05-12.88c3.72-2.05,7.23-3.38,10.02-5.61c14.56-11.6,29.46-22.86,43.17-35.41
		c8.02-7.34,7.84-19.92,1.95-27.67c-4.93-6.48-17.99-8.35-27.06-3.49c-3.65,1.96-6.79,4.86-10.22,7.25
		c-13.73,9.54-27.27,19.38-41.38,28.31c-3,1.9-8.88,1.88-12.1,0.19c-5.07-2.67-3.67-8.02-1.45-12.6
		c6.07-12.54,12.65-24.86,18.03-37.69c4.05-9.65,7.28-19.79,9.52-30.01c1.46-6.67-2.12-12.59-8.36-16.01
		c-10.2-5.6-25.97-2.6-32.32,7.18c-6.65,10.23-12.02,21.31-17.86,32.07c-6.23,11.48-11.04,24.03-18.92,34.22
		c-7.14,9.24-16.73,17.33-26.78,23.37c-12.53,7.53-23.93-0.63-22.44-15.15c0.67-6.5,2.34-13.38,5.44-19.05
		c13-23.71,31.16-42.67,54.64-56.38c19.02-11.1,39.52-17.74,61.05-22.08c8.79-1.77,17.64-5.21,25.37-9.74
		c7.55-4.42,8.48-12.51,5.68-20.82c-2.58-7.65-7.42-12.43-15.76-12.64c-8.9-0.22-18.11-1.64-26.67,0.06
		c-54.26,10.8-101.13,34.59-134.88,80.09c-16,21.57-26.21,45.29-25.36,72.83c0.81,26.29,14.48,44.75,38.1,50.75
		c13.34,3.39,26.71,3.04,39.34-2.76c7.55-3.47,14.62-8.03,21.74-12.38c3.42-2.09,6.57-3.93,9.12,0.64
		C1190,935.6,1205.88,937.79,1223.38,933.11z"/>
	<path d="M819.59,1179.92c0.25,18.67-4.59,37.41-7.32,56.76c-11.73,31.85-29.34,58.46-58.78,75.47
		c-17.49,10.11-36.49,14.12-56.46,8.91c-24.79-6.46-41.88-27.74-43.47-58.27c-2.74-52.62,16.57-96.03,59.18-127.98
		c12.04-9.03,26.14-13.69,41.12-15.4C791.31,1115.14,819.06,1139.53,819.59,1179.92z M768.48,1177.98
		c-2.96-10.93-10.7-15.65-20.84-10.65c-6.69,3.3-11.94,9.52-18.2,14.91c-0.04,0.08-0.08,0.16-0.12,0.23
		c-0.09,0.08-0.16,0.16-0.26,0.24c-6.75,14.61-14.8,28.79-19.8,43.98c-3.37,10.24-3.68,21.95-3.16,32.89
		c0.65,13.53,10.63,18.86,22.85,13.12c4.62-2.17,9.75-5.43,12.19-9.63c8.48-14.61,16.87-29.43,23.38-44.98
		C769.8,1205.55,772.25,1191.86,768.48,1177.98z"/>
	<path d="M1384.68,1233.49c-7.72,0.68-16,3.44-22.53,7.62c-23.48,15.02-48.65,26.22-75.05,34.59c-8.86,2.81-18.6,3.38-27.98,3.7
		c-3.35,0.11-8.62-2.85-9.72-5.69c-1.04-2.69,1.25-8.15,3.81-10.44c4.91-4.39,10.78-7.93,16.72-10.86
		c17.75-8.75,35.96-16.59,53.54-25.66c9.53-4.92,12.41-13.62,9.54-22.56c-3.47-10.81-10.81-16.19-22.01-15.04
		c-5.17,0.53-10.17,2.68-15.83,4.38c-5.43,2.17-10.28,4.04-15.17,5.93c-3.23-10.49-1.03-16.88,8.29-21.69
		c10.65-5.48,21.9-9.77,32.64-15.06c8.43-4.15,17.56-7.83,24.48-13.89c10.62-9.29,6.63-26.37-6.46-30.38
		c-5.39-1.65-11.65-2.27-17.18-1.36c-22.43,3.71-42.23,14-61.02,26.36c-25.56,16.81-33.97,38.37-26.03,67.7
		c1.68,6.22,0.09,10.07-4.88,13.55c-5.48,3.83-11.23,7.51-15.89,12.22c-14.87,15.01-20.77,33.16-14.73,53.68
		c5.82,19.74,21.34,28.71,40.58,31.34c9.59,1.31,19.57,1.72,29.18,0.7c43.14-4.6,81.8-21.58,117.58-45.3
		c6.42-4.25,12.04-11.15,15.5-18.09C1408.32,1246.75,1398.51,1232.27,1384.68,1233.49z"/>
	<g>
		<path d="M808.23,491.47c42.46-33.08,84.96-66.09,127.27-99.35c4.97-3.91,8.5-4.63,13.81-0.51c22.26,17.26,44.81,34.13,67.31,51.08
			c20.01,15.07,40.09,30.04,60.84,45.57c5.52-14.25,10.54-27.76,16.03-41.08c1.82-4.42,1.2-6.85-2.74-9.69
			c-11.75-8.49-23.17-17.45-35.19-26.59c-29.73-22.71-58.99-45.05-88.24-67.4c-19.11-14.6-29.47-14.58-48.6-0.11
			c-41.15,31.12-82.35,62.18-123.52,93.27c-6.84,5.17-13.67,10.36-20.97,15.89c9.66,14.74,18.87,28.78,28.2,43
			C805.05,493.71,806.7,492.66,808.23,491.47z"/>
		<path d="M885.68,495.62c-3.04-9.34-5.93-18.72-9.1-28.74c-12.83,8.29-24.68,15.65-36.09,23.63c-1.87,1.31-3.07,5.69-2.46,8.13
			c9.53,38.13,19.34,76.2,29.25,114.23c1.93,7.4,4.58,14.61,6.87,21.86c15.98-3.33,30.65-6.39,45.4-9.47
			c-1.3-11.78-2.5-22.82-3.76-33.86c-0.55-4.87,1.31-7.17,6.43-7.36c9.2-0.34,18.38-1.39,27.58-1.64
			c11.33-0.3,22.68-0.07,34.99-0.07c-1.45,14.11-2.83,27.45-4.25,41.33c16.21,0.96,30.84,1.83,45.68,2.72
			c7.82-46.37,15.5-91.76,23.04-137.17c0.26-1.59-0.4-4.3-1.54-5.01c-12.66-7.84-25.5-15.39-39.57-23.78
			c-4.75,26.1-9.4,50.46-13.47,74.92c-0.93,5.57-2.78,7.76-8.47,7.35c-11.97-0.86-23.97-1.3-36.77-1.97
			c-15.04-0.21-29.29-0.14-43.5-0.73c-2.44-0.1-6.1-2.55-6.91-4.76C894.19,522.16,889.99,508.87,885.68,495.62z"/>
		<path d="M920.27,469.05c5.02,3.56,9.39,7.06,14.17,9.87c6,3.53,12.71,3.83,18.15-0.54c8.45-6.77,16.9-13.78,24.05-21.85
			c7.56-8.51,5.43-20.37-3.64-29.26c-8.78-8.62-18.12-9.57-27.6-2.34c-3.31,2.52-5.98,3.77-9.35,0.42
			c-9.3-9.26-21.9-4.74-29.09,4.27c-8.2,10.28-7.18,21.79,2.61,30.43C912.92,463.01,916.39,465.81,920.27,469.05z"/>
	</g>
</g>
</svg>
